<svg width="1366" height="421" viewBox="0 0 1366 421" fill="none" xmlns="http://www.w3.org/2000/svg">
<rect width="1366" height="420" fill="#ECF3F1"/>
<g opacity="0.15">
<path d="M469.303 165.311H417.68V370.794H469.303V165.311Z" fill="#B5C3C2"/>
<path d="M460.869 150.58H426.115V236.93H460.869V150.58Z" fill="#B5C3C2"/>
<path d="M453.131 141.235H433.854V189.132H453.131V141.235Z" fill="#B5C3C2"/>
<path d="M450.061 165.847H436.924V133.206H441.663H446.359H450.061V165.847Z" fill="#B5C3C2"/>
<path d="M442.626 151.633H441.201V118.991H441.716H442.225H442.626V151.633Z" fill="#B5C3C2"/>
<path d="M445.782 140.349H444.357V107.708H444.871H445.381H445.782V140.349Z" fill="#B5C3C2"/>
<path d="M470.68 164.784H416.303V166.972H470.68V164.784Z" fill="#B5C3C2"/>
<path d="M462.138 149.527H424.848V151.634H462.138V149.527Z" fill="#B5C3C2"/>
<path d="M453.938 140.349H432.448V141.966H453.938V140.349Z" fill="#B5C3C2"/>
<path opacity="0.29" d="M430.927 154.084H429.312V163.132H430.927V154.084Z" fill="#B5C3C2"/>
<path opacity="0.29" d="M435.398 154.084H433.781V163.132H435.398V154.084Z" fill="#B5C3C2"/>
<path opacity="0.29" d="M439.868 154.084H438.252V163.132H439.868V154.084Z" fill="#B5C3C2"/>
<path opacity="0.29" d="M444.339 154.084H442.723V163.132H444.339V154.084Z" fill="#B5C3C2"/>
<path opacity="0.29" d="M448.809 154.084H447.192V163.132H448.809V154.084Z" fill="#B5C3C2"/>
<path opacity="0.29" d="M453.28 154.084H451.663V163.132H453.28V154.084Z" fill="#B5C3C2"/>
<path opacity="0.29" d="M457.749 154.084H456.133V163.132H457.749V154.084Z" fill="#B5C3C2"/>
<path d="M426.116 173.504H422.212V184.239H426.116V173.504Z" fill="#B5C3C2"/>
<path opacity="0.29" d="M433.846 173.504H429.942V184.239H433.846V173.504Z" fill="#B5C3C2"/>
<path d="M441.579 173.504H437.675V184.239H441.579V173.504Z" fill="#B5C3C2"/>
<path d="M449.309 173.504H445.405V184.239H449.309V173.504Z" fill="#B5C3C2"/>
<path d="M457.041 173.504H453.138V184.239H457.041V173.504Z" fill="#B5C3C2"/>
<path d="M464.773 173.504H460.869V184.239H464.773V173.504Z" fill="#B5C3C2"/>
<path d="M426.116 190.236H422.212V200.971H426.116V190.236Z" fill="#B5C3C2"/>
<path d="M433.846 190.236H429.942V200.971H433.846V190.236Z" fill="#B5C3C2"/>
<path d="M441.579 190.236H437.675V200.971H441.579V190.236Z" fill="#B5C3C2"/>
<path opacity="0.29" d="M449.309 190.236H445.405V200.971H449.309V190.236Z" fill="#B5C3C2"/>
<path d="M457.041 190.236H453.138V200.971H457.041V190.236Z" fill="#B5C3C2"/>
<path d="M464.773 190.236H460.869V200.971H464.773V190.236Z" fill="#B5C3C2"/>
<path d="M426.116 206.97H422.212V217.705H426.116V206.97Z" fill="#B5C3C2"/>
<path d="M433.846 206.97H429.942V217.705H433.846V206.97Z" fill="#B5C3C2"/>
<path d="M441.579 206.97H437.675V217.705H441.579V206.97Z" fill="#B5C3C2"/>
<path d="M449.309 206.97H445.405V217.705H449.309V206.97Z" fill="#B5C3C2"/>
<path opacity="0.29" d="M457.041 206.97H453.138V217.705H457.041V206.97Z" fill="#B5C3C2"/>
<path opacity="0.29" d="M464.773 206.97H460.869V217.705H464.773V206.97Z" fill="#B5C3C2"/>
<path opacity="0.29" d="M426.116 223.702H422.212V234.437H426.116V223.702Z" fill="#B5C3C2"/>
<path d="M433.846 223.702H429.942V234.437H433.846V223.702Z" fill="#B5C3C2"/>
<path d="M441.579 223.702H437.675V234.437H441.579V223.702Z" fill="#B5C3C2"/>
<path d="M449.309 223.702H445.405V234.437H449.309V223.702Z" fill="#B5C3C2"/>
<path d="M457.041 223.702H453.138V234.437H457.041V223.702Z" fill="#B5C3C2"/>
<path d="M464.773 223.702H460.869V234.437H464.773V223.702Z" fill="#B5C3C2"/>
<path d="M426.116 240.435H422.212V251.17H426.116V240.435Z" fill="#B5C3C2"/>
<path opacity="0.29" d="M433.846 240.435H429.942V251.17H433.846V240.435Z" fill="#B5C3C2"/>
<path d="M441.579 240.435H437.675V251.17H441.579V240.435Z" fill="#B5C3C2"/>
<path opacity="0.29" d="M449.309 240.435H445.405V251.17H449.309V240.435Z" fill="#B5C3C2"/>
<path d="M457.041 240.435H453.138V251.17H457.041V240.435Z" fill="#B5C3C2"/>
<path d="M464.773 240.435H460.869V251.17H464.773V240.435Z" fill="#B5C3C2"/>
<path d="M426.116 257.169H422.212V267.904H426.116V257.169Z" fill="#B5C3C2"/>
<path d="M433.846 257.169H429.942V267.904H433.846V257.169Z" fill="#B5C3C2"/>
<path d="M441.579 257.169H437.675V267.904H441.579V257.169Z" fill="#B5C3C2"/>
<path d="M449.309 257.169H445.405V267.904H449.309V257.169Z" fill="#B5C3C2"/>
<path d="M457.041 257.169H453.138V267.904H457.041V257.169Z" fill="#B5C3C2"/>
<path opacity="0.29" d="M464.773 257.169H460.869V267.904H464.773V257.169Z" fill="#B5C3C2"/>
<path d="M426.116 273.901H422.212V284.636H426.116V273.901Z" fill="#B5C3C2"/>
<path opacity="0.29" d="M433.846 273.901H429.942V284.636H433.846V273.901Z" fill="#B5C3C2"/>
<path opacity="0.29" d="M441.579 273.901H437.675V284.636H441.579V273.901Z" fill="#B5C3C2"/>
<path d="M449.309 273.901H445.405V284.636H449.309V273.901Z" fill="#B5C3C2"/>
<path d="M457.041 273.901H453.138V284.636H457.041V273.901Z" fill="#B5C3C2"/>
<path d="M464.773 273.901H460.869V284.636H464.773V273.901Z" fill="#B5C3C2"/>
<path d="M426.116 290.634H422.212V301.369H426.116V290.634Z" fill="#B5C3C2"/>
<path d="M433.846 290.634H429.942V301.369H433.846V290.634Z" fill="#B5C3C2"/>
<path d="M441.579 290.634H437.675V301.369H441.579V290.634Z" fill="#B5C3C2"/>
<path d="M449.309 290.634H445.405V301.369H449.309V290.634Z" fill="#B5C3C2"/>
<path opacity="0.29" d="M457.041 290.634H453.138V301.369H457.041V290.634Z" fill="#B5C3C2"/>
<path d="M464.773 290.634H460.869V301.369H464.773V290.634Z" fill="#B5C3C2"/>
<path d="M426.116 307.366H422.212V318.101H426.116V307.366Z" fill="#B5C3C2"/>
<path opacity="0.29" d="M433.846 307.366H429.942V318.101H433.846V307.366Z" fill="#B5C3C2"/>
<path d="M441.579 307.366H437.675V318.101H441.579V307.366Z" fill="#B5C3C2"/>
<path d="M449.309 307.366H445.405V318.101H449.309V307.366Z" fill="#B5C3C2"/>
<path d="M457.041 307.366H453.138V318.101H457.041V307.366Z" fill="#B5C3C2"/>
<path d="M464.773 307.366H460.869V318.101H464.773V307.366Z" fill="#B5C3C2"/>
<path d="M426.116 324.099H422.212V334.835H426.116V324.099Z" fill="#B5C3C2"/>
<path d="M433.846 324.099H429.942V334.835H433.846V324.099Z" fill="#B5C3C2"/>
<path d="M441.579 324.099H437.675V334.835H441.579V324.099Z" fill="#B5C3C2"/>
<path opacity="0.29" d="M449.309 324.099H445.405V334.835H449.309V324.099Z" fill="#B5C3C2"/>
<path d="M457.041 324.099H453.138V334.835H457.041V324.099Z" fill="#B5C3C2"/>
<path opacity="0.29" d="M464.773 324.099H460.869V334.835H464.773V324.099Z" fill="#B5C3C2"/>
<path opacity="0.29" d="M426.116 340.832H422.212V351.567H426.116V340.832Z" fill="#B5C3C2"/>
<path d="M433.846 340.832H429.942V351.567H433.846V340.832Z" fill="#B5C3C2"/>
<path opacity="0.29" d="M441.579 340.832H437.675V351.567H441.579V340.832Z" fill="#B5C3C2"/>
<path d="M449.309 340.832H445.405V351.567H449.309V340.832Z" fill="#B5C3C2"/>
<path d="M457.041 340.832H453.138V351.567H457.041V340.832Z" fill="#B5C3C2"/>
<path d="M464.773 340.832H460.869V351.567H464.773V340.832Z" fill="#B5C3C2"/>
<path d="M350.738 173.127H267.752V346.229H350.738V173.127Z" fill="#B5C3C2"/>
<path d="M353.097 170.15H265.395V175.043H353.097V170.15Z" fill="#B5C3C2"/>
<path d="M347.949 163.888H270.542V187.144H347.949V163.888Z" fill="#B5C3C2"/>
<path d="M307.12 154.372H276.467V179.781H307.12V154.372Z" fill="#B5C3C2"/>
<path d="M294.206 161.533H276.467V148.158H289.189L294.206 161.533Z" fill="#B5C3C2"/>
<path d="M285.336 137.056H283.616V166.849H285.336V137.056Z" fill="#B5C3C2"/>
<path d="M286.02 135.511C286.02 136.364 285.329 137.055 284.476 137.055C283.623 137.055 282.931 136.364 282.931 135.511C282.931 134.659 283.622 133.966 284.476 133.966C285.329 133.968 286.02 134.659 286.02 135.511Z" fill="#B5C3C2"/>
<path d="M1037.95 359.406H947.106L935.771 104.899L1037.95 126.109V359.406Z" fill="#B5C3C2"/>
<path d="M641.629 214.06V128.973H627.383V106.181H622.293V72.7526H594.252V48.186H591.756V72.7526H586.263V42H583.769V72.7526H566.041V128.973H556.884V214.06H549.034V369.041H647.148V214.06H641.629Z" fill="#B5C3C2"/>
<path d="M1237.14 356.251H151.772V382.065H1237.14V356.251Z" fill="#B5C3C2"/>
<path d="M790.65 375.74H742.589L761.316 279.499H790.65V375.74Z" fill="#95A9A7"/>
<path d="M1252.41 379.489H112.831V420.192H1252.41V379.489Z" fill="#95A9A7"/>
<path d="M751.262 197.647V155H735.831V138.763H727.575V125.124H724.678V101.744H723.929V125.124H721.031V138.763H712.775V155H697.461V197.647H694.278V275.074H670.534V363.337H694.278H718.023H754.328V197.647H751.262Z" fill="#95A9A7"/>
<path d="M839.951 246.635H765.256V247.994H768.636V374.297H836.571V247.994H839.951V246.635Z" fill="#95A9A7"/>
<path d="M499.342 278.096H433.116V383.308H499.342V278.096Z" fill="#95A9A7"/>
<path d="M423.142 332H309.245V383.307H423.142V332Z" fill="#95A9A7"/>
<path d="M395.298 217.371H370.294V343.367H395.298V217.371Z" fill="#95A9A7"/>
<path d="M377.112 183.761H375.813V252.279H377.112V183.761Z" fill="#95A9A7"/>
<path d="M381.334 188.957H380.036V257.475H381.334V188.957Z" fill="#95A9A7"/>
<path d="M387.505 209.578H372.222V226.463H387.505V209.578Z" fill="#95A9A7"/>
<path d="M462.191 296.93H418.678V383.307H462.191V296.93Z" fill="#95A9A7"/>
<path d="M591.758 205.521H510.077V383.307H591.758V205.521Z" fill="#95A9A7"/>
<path d="M583.733 199.41H518.102V229.021H583.733V199.41Z" fill="#95A9A7"/>
<path d="M598.09 209.24H503.745V211.319H598.09V209.24Z" fill="#95A9A7"/>
<path d="M533.766 293.521H495.278V383.308H533.766V293.521Z" fill="#95A9A7"/>
<path d="M263.783 290.11H219.619V383.307H263.783V290.11Z" fill="#95A9A7"/>
<path d="M321.91 264.782H233.908V383.308H321.91V264.782Z" fill="#95A9A7"/>
<path d="M324.182 260.235H228.773V264.782H324.182V260.235Z" fill="#95A9A7"/>
<path d="M276.478 247.895H237.804V271.925H276.478V247.895Z" fill="#95A9A7"/>
<path d="M295.604 247.895H289.11V262.509H295.604V247.895Z" fill="#95A9A7"/>
<path d="M309.244 247.895H302.1V262.509H309.244V247.895Z" fill="#95A9A7"/>
<path d="M241.7 347.263H195.589V383.308H241.7V347.263Z" fill="#95A9A7"/>
<path d="M200.006 332H178.172V383.307H200.006V332Z" fill="#95A9A7"/>
<path d="M189.091 365.286H151.772V383.308H189.091V365.286Z" fill="#95A9A7"/>
<path d="M1043.57 343.366H583.734V383.307H1043.57V343.366Z" fill="#95A9A7"/>
<path d="M1006.85 232.801C1003.95 232.801 1001.58 235.029 1001.34 237.863L994.872 237.652C994.888 237.018 994.899 236.383 994.899 235.747C994.899 227.692 993.508 219.852 990.844 212.498L996.251 210.507C997.1 212.467 999.05 213.838 1001.32 213.838C1004.37 213.838 1006.85 211.364 1006.85 208.313C1006.85 205.261 1004.37 202.787 1001.32 202.787C998.271 202.787 995.797 205.261 995.797 208.313C995.797 208.876 995.881 209.419 996.038 209.932L990.633 211.921C987.554 203.66 982.857 196.026 976.705 189.413L980.936 185.45C981.927 186.398 983.27 186.98 984.751 186.98C987.803 186.98 990.277 184.506 990.277 181.455C990.277 178.403 987.803 175.93 984.751 175.93C981.7 175.93 979.226 178.403 979.226 181.455C979.226 182.806 979.711 184.043 980.516 185.004L976.286 188.969C975.85 188.509 975.408 188.052 974.957 187.603C968.551 181.197 961.093 176.225 952.974 172.847L955.301 167.181C955.829 167.349 956.391 167.44 956.973 167.44C960.025 167.44 962.499 164.966 962.499 161.914C962.499 158.863 960.025 156.389 956.973 156.389C953.922 156.389 951.448 158.863 951.448 161.914C951.448 164.166 952.795 166.102 954.727 166.963L952.405 172.616C945.141 169.672 937.356 167.997 929.329 167.707L929.58 159.962C929.639 159.963 929.697 159.965 929.755 159.965C932.807 159.965 935.281 157.492 935.281 154.44C935.281 151.389 932.807 148.915 929.755 148.915C926.704 148.915 924.23 151.389 924.23 154.44C924.23 157.224 926.29 159.526 928.968 159.909L928.715 167.687C928.081 167.67 927.446 167.661 926.81 167.661C919.08 167.661 911.549 168.941 904.454 171.398L902.225 165.077C904.236 164.25 905.65 162.273 905.65 159.965C905.65 156.914 903.176 154.44 900.125 154.44C897.073 154.44 894.598 156.914 894.598 159.965C894.598 163.017 897.072 165.491 900.125 165.491C900.652 165.491 901.162 165.415 901.645 165.277L903.874 171.6C895.27 174.67 887.326 179.481 880.475 185.853L876.437 181.544C877.341 180.56 877.893 179.249 877.893 177.808C877.893 174.757 875.419 172.283 872.367 172.283C869.316 172.283 866.841 174.757 866.841 177.808C866.841 180.86 869.315 183.333 872.367 183.333C873.758 183.333 875.027 182.818 875.998 181.971L880.029 186.274C879.569 186.709 879.113 187.152 878.663 187.601C872.965 193.299 868.404 199.829 865.088 206.917L859.952 204.547C860.137 203.994 860.239 203.402 860.239 202.786C860.239 199.735 857.765 197.261 854.714 197.261C851.663 197.261 849.189 199.735 849.189 202.786C849.189 205.838 851.663 208.311 854.714 208.311C856.932 208.311 858.845 207.003 859.724 205.117L864.826 207.472C861.163 215.489 859.088 224.204 858.762 233.228L852.175 233.013C852.093 230.032 849.654 227.641 846.653 227.641C843.602 227.641 841.128 230.115 841.128 233.167C841.128 236.218 843.602 238.692 846.653 238.692C849.55 238.692 851.924 236.462 852.158 233.627L858.743 233.841C858.725 234.475 858.716 235.11 858.716 235.747C858.716 243.801 860.106 251.642 862.771 258.996L857.364 260.987C856.514 259.026 854.564 257.655 852.292 257.655C849.241 257.655 846.767 260.129 846.767 263.181C846.767 266.232 849.241 268.706 852.292 268.706C855.344 268.706 857.819 266.232 857.819 263.181C857.819 262.617 857.735 262.074 857.578 261.562L862.983 259.571C866.062 267.832 870.759 275.466 876.911 282.079L872.68 286.043C871.689 285.096 870.346 284.512 868.865 284.512C865.813 284.512 863.339 286.986 863.339 290.037C863.339 293.089 865.813 295.563 868.865 295.563C871.916 295.563 874.391 293.089 874.391 290.037C874.391 288.687 873.906 287.45 873.101 286.489L877.332 282.525C877.768 282.985 878.21 283.441 878.659 283.891C882.973 288.205 887.765 291.868 892.915 294.833L859.595 356.247H853.615V358.003H850.686V361.49H1002.92V358.003H999.996V356.247H994.016L960.696 294.833C965.135 292.277 969.307 289.203 973.138 285.64L978.537 291.402C977.378 292.415 976.645 293.903 976.645 295.564C976.645 298.615 979.118 301.089 982.17 301.089C985.221 301.089 987.697 298.615 987.697 295.564C987.697 292.512 985.223 290.039 982.17 290.039C980.999 290.039 979.916 290.403 979.023 291.024L973.585 285.221C974.045 284.785 974.502 284.343 974.951 283.893C980.649 278.195 985.211 271.666 988.529 264.577L994.542 267.353C994.433 267.786 994.375 268.24 994.375 268.706C994.375 271.758 996.849 274.232 999.9 274.232C1002.95 274.232 1005.43 271.758 1005.43 268.706C1005.43 265.655 1002.95 263.181 999.9 263.181C997.532 263.181 995.513 264.669 994.727 266.763L988.788 264.02C992.45 256.003 994.525 247.288 994.851 238.264L1001.32 238.475C1001.4 241.457 1003.84 243.851 1006.85 243.851C1009.9 243.851 1012.37 241.377 1012.37 238.325C1012.37 235.274 1009.9 232.801 1006.85 232.801ZM993.056 235.748C993.056 236.364 993.047 236.98 993.03 237.593L973.966 236.973C973.976 236.566 973.982 236.157 973.982 235.748C973.982 230.129 972.993 224.738 971.182 219.737L989.112 213.135C991.704 220.289 993.056 227.914 993.056 235.748ZM973.045 236.944L930.517 235.561C930.503 235.284 930.458 235.015 930.387 234.756L970.317 220.055C972.09 224.957 973.059 230.24 973.059 235.748C973.06 236.148 973.055 236.547 973.045 236.944ZM880.57 234.552L923.098 235.935C923.112 236.212 923.157 236.481 923.228 236.74L883.298 251.441C881.524 246.539 880.556 241.256 880.556 235.748C880.555 235.348 880.56 234.949 880.57 234.552ZM929.718 233.44L960.749 204.363C964.775 208.713 967.976 213.834 970.103 219.48L930.174 234.18C930.052 233.916 929.898 233.668 929.718 233.44ZM929.299 232.992C929.059 232.774 928.789 232.588 928.498 232.44L944.661 193.081C950.619 195.583 955.946 199.298 960.332 203.913L929.299 232.992ZM927.931 232.206C927.707 232.136 927.474 232.086 927.235 232.058L928.618 189.534C934.069 189.744 939.282 190.902 944.094 192.848L927.931 232.206ZM926.621 232.037C926.361 232.05 926.108 232.09 925.866 232.153L911.721 192.023C916.452 190.386 921.527 189.494 926.807 189.494C927.207 189.494 927.606 189.499 928.003 189.509L926.621 232.037ZM925.287 232.358C925.004 232.484 924.74 232.647 924.5 232.837L895.422 201.806C899.927 197.638 905.259 194.352 911.142 192.228L925.287 232.358ZM924.052 233.256C923.87 233.458 923.71 233.68 923.576 233.918L884.949 216.087C887.415 210.858 890.83 206.162 894.975 202.225L924.052 233.256ZM923.316 234.474C923.218 234.742 923.151 235.026 923.117 235.32L880.593 233.937C880.831 227.792 882.271 221.949 884.688 216.64L923.316 234.474ZM923.439 237.315C923.539 237.528 923.657 237.731 923.795 237.92L923.542 238.387L892.865 267.132C888.84 262.782 885.639 257.66 883.511 252.015L923.439 237.315ZM922.614 240.098L903.354 275.598C899.633 273.4 896.243 270.697 893.283 267.582L922.614 240.098ZM924.708 238.812C924.838 238.902 924.975 238.982 925.117 239.055L908.953 278.414C907.397 277.76 905.884 277.022 904.418 276.208L924.708 238.812ZM925.684 239.29C925.908 239.36 926.14 239.41 926.381 239.438L924.998 281.963C919.547 281.752 914.334 280.594 909.522 278.648L925.684 239.29ZM926.807 282.001C926.407 282.001 926.009 281.996 925.611 281.986L926.994 239.458C927.253 239.445 927.506 239.405 927.749 239.341L941.894 279.472C937.163 281.109 932.087 282.001 926.807 282.001ZM928.328 239.137C928.531 239.045 928.725 238.938 928.907 238.812L949.195 276.208C947.052 277.399 944.806 278.425 942.471 279.268L928.328 239.137ZM931.741 241.463L958.193 269.691C955.774 271.93 953.116 273.913 950.262 275.599L931.741 241.463ZM930.585 239.33L929.821 237.92C929.9 237.81 929.974 237.697 930.04 237.578L968.667 255.409C966.201 260.638 962.785 265.334 958.641 269.271L930.585 239.33ZM930.298 237.022C930.397 236.752 930.463 236.469 930.498 236.176L973.022 237.559C972.784 243.705 971.344 249.547 968.926 254.856L930.298 237.022ZM908.604 279.266L901.344 296.945C899.131 296.024 896.968 294.981 894.864 293.821L903.98 277.019C905.474 277.848 907.016 278.601 908.604 279.266ZM909.172 279.499C914.084 281.486 919.404 282.668 924.969 282.883L924.349 301.951C916.544 301.668 908.976 300.039 901.912 297.177L909.172 279.499ZM925.582 282.906C925.99 282.916 926.397 282.921 926.807 282.921C932.195 282.921 937.373 282.011 942.199 280.34L948.551 298.36C941.651 300.749 934.325 301.994 926.809 301.994C926.191 301.994 925.577 301.985 924.963 301.968L925.582 282.906ZM942.778 280.136C945.157 279.278 947.448 278.231 949.635 277.019L958.751 293.821C955.662 295.526 952.447 296.976 949.13 298.159L942.778 280.136ZM988.902 212.559L970.968 219.162C968.797 213.4 965.53 208.173 961.422 203.734L975.359 190.675C981.341 197.105 985.906 204.526 988.902 212.559ZM973.652 188.904C974.088 189.339 974.516 189.781 974.939 190.227L961.004 203.286C956.527 198.573 951.092 194.783 945.012 192.23L952.271 174.551C960.168 177.836 967.421 182.673 973.652 188.904ZM951.702 174.318L944.442 191.997C939.53 190.01 934.21 188.828 928.646 188.613L929.266 169.544C937.071 169.827 944.638 171.456 951.702 174.318ZM926.807 169.499C927.423 169.499 928.039 169.508 928.653 169.525L928.033 188.589C927.625 188.579 927.218 188.574 926.807 188.574C921.42 188.574 916.242 189.484 911.416 191.155L905.064 173.135C911.964 170.744 919.29 169.499 926.807 169.499ZM904.485 173.337L910.837 191.358C904.832 193.525 899.39 196.879 894.794 201.132L881.734 187.195C888.394 181 896.12 176.323 904.485 173.337ZM879.963 188.904C880.399 188.468 880.841 188.04 881.287 187.617L894.345 201.552C890.115 205.569 886.628 210.362 884.112 215.7L866.758 207.689C869.983 200.795 874.421 194.444 879.963 188.904ZM866.5 208.246L883.853 216.257C881.385 221.674 879.916 227.636 879.673 233.909L860.605 233.289C860.922 224.516 862.939 216.041 866.5 208.246ZM860.559 235.748C860.559 235.132 860.568 234.516 860.584 233.903L879.649 234.523C879.638 234.93 879.633 235.338 879.633 235.748C879.633 241.367 880.622 246.758 882.433 251.759L864.502 258.361C861.911 251.207 860.559 243.581 860.559 235.748ZM864.713 258.937L882.646 252.334C884.817 258.096 888.085 263.323 892.193 267.762L878.256 280.821C872.275 274.391 867.708 266.97 864.713 258.937ZM879.963 282.592C879.527 282.157 879.099 281.715 878.676 281.27L892.611 268.212C895.638 271.399 899.106 274.163 902.914 276.409L893.796 293.218C888.799 290.336 884.15 286.78 879.963 282.592ZM992.621 356.251H860.993L893.985 295.441C896.147 296.633 898.369 297.704 900.644 298.651L898.317 304.317C897.789 304.15 897.227 304.059 896.643 304.059C893.591 304.059 891.117 306.533 891.117 309.584C891.117 312.636 893.591 315.11 896.643 315.11C899.694 315.11 902.169 312.636 902.169 309.584C902.169 307.333 900.822 305.397 898.89 304.536L901.212 298.882C908.477 301.827 916.261 303.502 924.289 303.792L924.101 309.587C921.108 309.655 918.703 312.1 918.703 315.11C918.703 318.161 921.177 320.635 924.23 320.635C927.283 320.635 929.755 318.161 929.755 315.11C929.755 312.222 927.54 309.853 924.716 309.606L924.903 303.811C925.537 303.829 926.172 303.838 926.809 303.838C934.538 303.838 942.07 302.558 949.165 300.1L951.15 305.734C949.271 306.616 947.967 308.525 947.967 310.74C947.967 313.791 950.441 316.265 953.493 316.265C956.544 316.265 959.018 313.791 959.018 310.74C959.018 307.688 956.544 305.214 953.493 305.214C952.873 305.214 952.276 305.318 951.72 305.507L949.743 299.898C953.151 298.682 956.456 297.193 959.63 295.442L992.621 356.251ZM959.82 293.217L950.702 276.408C953.624 274.684 956.346 272.653 958.822 270.362L971.882 284.3C968.167 287.754 964.122 290.736 959.82 293.217ZM973.652 282.592C973.216 283.028 972.774 283.456 972.328 283.879L959.27 269.944C963.499 265.927 966.985 261.134 969.501 255.796L986.856 263.807C983.632 270.7 979.194 277.05 973.652 282.592ZM987.115 263.25L969.762 255.239C972.23 249.822 973.699 243.858 973.942 237.587L993.01 238.207C992.693 246.98 990.675 255.455 987.115 263.25Z" fill="#95A9A7"/>
<path d="M1091.19 279.269H1020.18V383.308H1091.19V279.269Z" fill="#95A9A7"/>
<path d="M1151.81 319.718H1080.8V382.721H1151.81V319.718Z" fill="#95A9A7"/>
<path d="M845.264 310.466H805.431V363.337H845.264V310.466Z" fill="#95A9A7"/>
<path d="M1105.91 180.327H1055.69V383.307H1105.91V180.327Z" fill="#95A9A7"/>
<path d="M1188.61 383.307H1122.37V264.782H1172.59L1188.61 383.307Z" fill="#95A9A7"/>
<path d="M1217.62 356.251H1159.6V383.308H1217.62V356.251Z" fill="#95A9A7"/>
<path d="M1094.66 137.921H1092.92V193.081H1094.66V137.921Z" fill="#95A9A7"/>
<path d="M1100.5 149.758H1098.77V204.917H1100.5V149.758Z" fill="#95A9A7"/>
<path d="M1089.35 157.373H1087.62V212.532H1089.35V157.373Z" fill="#95A9A7"/>
<path d="M1148.67 255.202H1124.96V273.874H1148.67V255.202Z" fill="#95A9A7"/>
<path d="M1146.07 248.546H1127.56V259.041H1146.07V248.546Z" fill="#95A9A7"/>
<path d="M1162.63 260.671H1158.09V268.21H1162.63V260.671Z" fill="#95A9A7"/>
<path d="M1170.74 253.792H1164.24V268.21H1170.74V253.792Z" fill="#95A9A7"/>
<path d="M865.44 226.114H805.229V420.192H865.44V226.114Z" fill="#658280"/>
<path d="M869.939 227.264H800.731V229.231H869.939V227.264Z" fill="#658280"/>
<path d="M868.066 254.526H802.604V256.486H868.066V254.526Z" fill="#658280"/>
<path d="M868.066 280.927H802.604V282.888H868.066V280.927Z" fill="#658280"/>
<path d="M868.066 307.329H802.604V309.289H868.066V307.329Z" fill="#658280"/>
<path d="M868.066 333.731H802.604V335.691H868.066V333.731Z" fill="#658280"/>
<path d="M868.066 360.132H802.604V362.092H868.066V360.132Z" fill="#658280"/>
<path d="M868.066 386.534H802.604V388.494H868.066V386.534Z" fill="#658280"/>
<path d="M872.229 221.903H798.443V227.264H872.229V221.903Z" fill="#658280"/>
<path opacity="0.29" d="M816.906 235.606H810.649V251.11H816.906V235.606Z" fill="#658280"/>
<path d="M830.899 235.606H824.643V251.11H830.899V235.606Z" fill="#658280"/>
<path d="M844.893 235.606H838.637V251.11H844.893V235.606Z" fill="#658280"/>
<path d="M858.885 235.606H852.629V251.11H858.885V235.606Z" fill="#658280"/>
<path d="M816.906 260.955H810.649V276.459H816.906V260.955Z" fill="#658280"/>
<path opacity="0.29" d="M830.899 260.955H824.643V276.459H830.899V260.955Z" fill="#658280"/>
<path d="M844.893 260.955H838.637V276.459H844.893V260.955Z" fill="#658280"/>
<path d="M858.885 260.955H852.629V276.459H858.885V260.955Z" fill="#658280"/>
<path d="M816.906 287.356H810.649V302.86H816.906V287.356Z" fill="#658280"/>
<path d="M830.899 287.356H824.643V302.86H830.899V287.356Z" fill="#658280"/>
<path d="M844.893 287.356H838.637V302.86H844.893V287.356Z" fill="#658280"/>
<path opacity="0.29" d="M858.885 287.356H852.629V302.86H858.885V287.356Z" fill="#658280"/>
<path d="M816.906 313.758H810.649V329.262H816.906V313.758Z" fill="#658280"/>
<path opacity="0.29" d="M830.899 313.758H824.643V329.262H830.899V313.758Z" fill="#658280"/>
<path opacity="0.29" d="M844.893 313.758H838.637V329.262H844.893V313.758Z" fill="#658280"/>
<path d="M858.885 313.758H852.629V329.262H858.885V313.758Z" fill="#658280"/>
<path opacity="0.29" d="M816.906 340.159H810.649V355.663H816.906V340.159Z" fill="#658280"/>
<path d="M830.899 340.159H824.643V355.663H830.899V340.159Z" fill="#658280"/>
<path d="M844.893 340.159H838.637V355.663H844.893V340.159Z" fill="#658280"/>
<path d="M858.885 340.159H852.629V355.663H858.885V340.159Z" fill="#658280"/>
<path d="M816.906 366.561H810.649V382.065H816.906V366.561Z" fill="#658280"/>
<path d="M830.899 366.561H824.643V382.065H830.899V366.561Z" fill="#658280"/>
<path opacity="0.29" d="M844.893 366.561H838.637V382.065H844.893V366.561Z" fill="#658280"/>
<path d="M858.885 366.561H852.629V382.065H858.885V366.561Z" fill="#658280"/>
<path d="M816.906 392.962H810.649V408.467H816.906V392.962Z" fill="#658280"/>
<path opacity="0.29" d="M830.899 392.962H824.643V408.467H830.899V392.962Z" fill="#658280"/>
<path d="M844.893 392.962H838.637V408.467H844.893V392.962Z" fill="#658280"/>
<path opacity="0.29" d="M858.885 392.962H852.629V408.467H858.885V392.962Z" fill="#658280"/>
<path d="M829.509 214.504H809.03V224.583H829.509V214.504Z" fill="#658280"/>
<path d="M830.898 214.216H807.642V215.939H830.898V214.216Z" fill="#658280"/>
<path d="M718.932 420.192H638.726V235.791L718.932 216.173V420.192Z" fill="#658280"/>
<path d="M642.249 232.546H635.201V420.192H642.249V232.546Z" fill="#658280"/>
<path d="M662.3 227.258H655.253V420.192H662.3V227.258Z" fill="#658280"/>
<path d="M682.352 221.766H675.305V420.192H682.352V221.766Z" fill="#658280"/>
<path d="M702.403 217.291H695.355V420.192H702.403V217.291Z" fill="#658280"/>
<path d="M722.455 212.532H715.407V420.192H722.455V212.532Z" fill="#658280"/>
<path opacity="0.29" d="M653.427 248.293H644.073V262.543H653.427V248.293Z" fill="#658280"/>
<path opacity="0.29" d="M673.479 248.293H664.125V262.543H673.479V248.293Z" fill="#658280"/>
<path d="M693.531 248.293H684.177V262.543H693.531V248.293Z" fill="#658280"/>
<path opacity="0.29" d="M713.583 248.293H704.229V262.543H713.583V248.293Z" fill="#658280"/>
<path d="M653.427 273.107H644.073V287.358H653.427V273.107Z" fill="#658280"/>
<path d="M673.479 273.107H664.125V287.358H673.479V273.107Z" fill="#658280"/>
<path opacity="0.29" d="M693.531 273.107H684.177V287.358H693.531V273.107Z" fill="#658280"/>
<path opacity="0.29" d="M713.583 273.107H704.229V287.358H713.583V273.107Z" fill="#658280"/>
<path opacity="0.29" d="M653.427 297.921H644.073V312.172H653.427V297.921Z" fill="#658280"/>
<path opacity="0.29" d="M673.479 297.921H664.125V312.172H673.479V297.921Z" fill="#658280"/>
<path opacity="0.29" d="M693.531 297.921H684.177V312.172H693.531V297.921Z" fill="#658280"/>
<path d="M713.583 297.921H704.229V312.172H713.583V297.921Z" fill="#658280"/>
<path opacity="0.29" d="M653.427 322.736H644.073V336.986H653.427V322.736Z" fill="#658280"/>
<path d="M673.479 322.736H664.125V336.986H673.479V322.736Z" fill="#658280"/>
<path opacity="0.29" d="M693.531 322.736H684.177V336.986H693.531V322.736Z" fill="#658280"/>
<path opacity="0.29" d="M713.583 322.736H704.229V336.986H713.583V322.736Z" fill="#658280"/>
<path opacity="0.29" d="M653.427 347.549H644.073V361.8H653.427V347.549Z" fill="#658280"/>
<path opacity="0.29" d="M673.479 347.549H664.125V361.8H673.479V347.549Z" fill="#658280"/>
<path d="M693.531 347.549H684.177V361.8H693.531V347.549Z" fill="#658280"/>
<path opacity="0.29" d="M713.583 347.549H704.229V361.8H713.583V347.549Z" fill="#658280"/>
<path d="M653.427 372.364H644.073V386.614H653.427V372.364Z" fill="#658280"/>
<path d="M673.479 372.364H664.125V386.614H673.479V372.364Z" fill="#658280"/>
<path opacity="0.29" d="M693.531 372.364H684.177V386.614H693.531V372.364Z" fill="#658280"/>
<path opacity="0.29" d="M713.583 372.364H704.229V386.614H713.583V372.364Z" fill="#658280"/>
<path opacity="0.29" d="M653.427 397.177H644.073V411.427H653.427V397.177Z" fill="#658280"/>
<path d="M673.479 397.177H664.125V411.427H673.479V397.177Z" fill="#658280"/>
<path opacity="0.29" d="M693.531 397.177H684.177V411.427H693.531V397.177Z" fill="#658280"/>
<path d="M713.583 397.177H704.229V411.427H713.583V397.177Z" fill="#658280"/>
<path d="M409.925 244.625V246.539H408.019V251.996H441.579V420.192H386.506V260.771V251.996V246.539H384.508V244.625H409.925Z" fill="#658280"/>
<path d="M550.919 321.025H503.746V420.192H550.919V321.025Z" fill="#658280"/>
<path d="M336.49 298.292H298.145V420.192H336.49V298.292Z" fill="#658280"/>
<path d="M370.681 323.691H328.895V420.192H370.681V323.691Z" fill="#658280"/>
<path d="M328.895 293.399H311.94V307.987H328.895V293.399Z" fill="#658280"/>
<path d="M376.306 322.101H331.762V325.669H376.306V322.101Z" fill="#658280"/>
<path d="M413.043 365.081H366.193V420.192H413.043V365.081Z" fill="#658280"/>
<path d="M252.886 320.254H214.776V420.192H252.886V320.254Z" fill="#658280"/>
<path d="M231.841 370.057H181.706V420.192H231.841V370.057Z" fill="#658280"/>
<path d="M157.861 361.864H126.501V420.192H157.861V361.864Z" fill="#658280"/>
<path d="M225.891 401.921H151.772V420.192H225.891V401.921Z" fill="#658280"/>
<path d="M136.097 396.016H98.1094V420.192H136.097V396.016Z" fill="#658280"/>
<path d="M311.94 383.307H252.886V420.192H311.94V383.307Z" fill="#658280"/>
<path d="M518.103 404.302H426.115V420.192H518.103V404.302Z" fill="#658280"/>
<path d="M681.196 404.302H589.208V420.192H681.196V404.302Z" fill="#658280"/>
<path d="M514.521 357.654H479.558L464.772 412.248H514.521V357.654Z" fill="#658280"/>
<path d="M531.655 278.22H530.682V338.782H531.655V278.22Z" fill="#658280"/>
<path d="M536.851 298.714H535.553V334.449H536.851V298.714Z" fill="#658280"/>
<path d="M546.281 305.047H528.592V322.736H546.281V305.047Z" fill="#658280"/>
<path d="M549.033 303.672H525.605V305.256H549.033V303.672Z" fill="#658280"/>
<path d="M599.496 369.041H542.339V420.191H599.496V369.041Z" fill="#658280"/>
<path d="M625.287 312.734H588.565V411.429H625.287V312.734Z" fill="#658280"/>
<path d="M790.649 331.289H731.98V420.192H790.649V331.289Z" fill="#658280"/>
<path d="M780.473 387.433H713.583V420.192H780.473V387.433Z" fill="#658280"/>
<path d="M830.899 408.467H787.401V420.192H830.899V408.467Z" fill="#658280"/>
<path d="M925.118 387.433H854.397V420.192H925.118V387.433Z" fill="#658280"/>
<path d="M882.573 420.192H970.574V301.666H882.573V420.192Z" fill="#658280"/>
<path d="M880.299 301.667H975.708V297.12H880.299V301.667Z" fill="#658280"/>
<path d="M928.003 308.81H966.677V284.78H928.003V308.81Z" fill="#658280"/>
<path d="M908.876 299.393H915.37V284.779H908.876V299.393Z" fill="#658280"/>
<path d="M895.235 299.393H902.38V284.779H895.235V299.393Z" fill="#658280"/>
<path d="M1031.07 420.192H1100.73V247.09H1031.07V420.192Z" fill="#658280"/>
<path d="M1029.09 249.006H1102.71V244.113H1029.09V249.006Z" fill="#658280"/>
<path d="M1033.41 261.106H1098.39V237.85H1033.41V261.106Z" fill="#658280"/>
<path d="M1067.68 253.745H1093.41V228.336H1067.68V253.745Z" fill="#658280"/>
<path d="M1078.52 235.498H1093.41V222.121H1082.73L1078.52 235.498Z" fill="#658280"/>
<path d="M1085.97 240.812H1087.41V211.019H1085.97V240.812Z" fill="#658280"/>
<path d="M1085.39 209.475C1085.39 210.328 1085.97 211.019 1086.69 211.019C1087.4 211.019 1087.99 210.328 1087.99 209.475C1087.99 208.622 1087.41 207.931 1086.69 207.931C1085.97 207.931 1085.39 208.622 1085.39 209.475Z" fill="#658280"/>
<path d="M1122.37 348.731H1091.19V420.192H1122.37V348.731Z" fill="#658280"/>
<path d="M1037.95 313.891H1002.39V420.192H1037.95V313.891Z" fill="#658280"/>
<path d="M1020.19 420.192H970.105V363.337L1012.37 382.065L1020.19 420.192Z" fill="#658280"/>
<path d="M1188.61 389.314H1112.13V420.192H1188.61V389.314Z" fill="#658280"/>
<path d="M1204.79 296.93H1160.36V420.192H1204.79V296.93Z" fill="#658280"/>
<path d="M1268 397.177H1194.39V420.191H1268V397.177Z" fill="#658280"/>
<path d="M1206.82 294.673H1158.09V298.714H1206.82V294.673Z" fill="#658280"/>
<path d="M1198.83 277.28H1197.86V302.12H1198.83V277.28Z" fill="#658280"/>
<path d="M1192.34 280.425H1191.36V300.352H1192.34V280.425Z" fill="#658280"/>
<path d="M1221.24 343.365H1201.43V399.84H1229.68L1221.24 343.365Z" fill="#658280"/>
<g opacity="0.52">
<path d="M305.003 285.348H302.101V288.25H305.003V285.348Z" fill="white"/>
<path d="M310.835 285.348H307.933V288.25H310.835V285.348Z" fill="white"/>
<path d="M305.003 292.167H302.101V295.069H305.003V292.167Z" fill="white"/>
<path d="M310.835 292.167H307.933V295.069H310.835V292.167Z" fill="white"/>
<path d="M305.003 298.759H302.101V301.661H305.003V298.759Z" fill="white"/>
<path d="M317.316 285.348H314.414V288.25H317.316V285.348Z" fill="white"/>
</g>
<path opacity="0.5" d="M516.501 198.175H514.521V209.133H516.501V198.175Z" fill="white"/>
<path opacity="0.5" d="M523.323 198.175H521.344V209.133H523.323V198.175Z" fill="white"/>
<path opacity="0.5" d="M530.146 198.175H528.167V209.133H530.146V198.175Z" fill="white"/>
<path opacity="0.5" d="M536.969 198.175H534.989V209.133H536.969V198.175Z" fill="white"/>
<path opacity="0.5" d="M543.791 198.175H541.812V209.133H543.791V198.175Z" fill="white"/>
<path opacity="0.5" d="M550.613 198.175H548.634V209.133H550.613V198.175Z" fill="white"/>
<path opacity="0.5" d="M557.435 198.175H555.456V209.133H557.435V198.175Z" fill="white"/>
<path opacity="0.5" d="M564.257 198.175H562.277V209.133H564.257V198.175Z" fill="white"/>
<path opacity="0.5" d="M571.079 198.175H569.1V209.133H571.079V198.175Z" fill="white"/>
<path opacity="0.5" d="M577.901 198.175H575.922V209.133H577.901V198.175Z" fill="white"/>
<path opacity="0.5" d="M584.724 198.175H582.744V209.133H584.724V198.175Z" fill="white"/>
<path opacity="0.5" d="M516.501 213.43H514.521V224.388H516.501V213.43Z" fill="white"/>
<path opacity="0.5" d="M523.323 213.43H521.344V224.388H523.323V213.43Z" fill="white"/>
<path opacity="0.5" d="M530.146 213.43H528.167V224.388H530.146V213.43Z" fill="white"/>
<path opacity="0.5" d="M536.969 213.43H534.989V224.388H536.969V213.43Z" fill="white"/>
<path opacity="0.5" d="M543.791 213.43H541.812V224.388H543.791V213.43Z" fill="white"/>
<path opacity="0.5" d="M550.613 213.43H548.634V224.388H550.613V213.43Z" fill="white"/>
<path opacity="0.5" d="M557.435 213.43H555.456V224.388H557.435V213.43Z" fill="white"/>
<path opacity="0.5" d="M564.257 213.43H562.277V224.388H564.257V213.43Z" fill="white"/>
<path opacity="0.5" d="M571.079 213.43H569.1V224.388H571.079V213.43Z" fill="white"/>
<path opacity="0.5" d="M577.901 213.43H575.922V224.388H577.901V213.43Z" fill="white"/>
<path opacity="0.5" d="M584.724 213.43H582.744V224.388H584.724V213.43Z" fill="white"/>
<path opacity="0.5" d="M516.501 228.685H514.521V239.643H516.501V228.685Z" fill="white"/>
<path opacity="0.5" d="M523.323 228.685H521.344V239.643H523.323V228.685Z" fill="white"/>
<path opacity="0.5" d="M530.146 228.685H528.167V239.643H530.146V228.685Z" fill="white"/>
<path opacity="0.5" d="M536.969 228.685H534.989V239.643H536.969V228.685Z" fill="white"/>
<path opacity="0.5" d="M543.791 228.685H541.812V239.643H543.791V228.685Z" fill="white"/>
<path opacity="0.5" d="M550.613 228.685H548.634V239.643H550.613V228.685Z" fill="white"/>
<path opacity="0.5" d="M557.435 228.685H555.456V239.643H557.435V228.685Z" fill="white"/>
<path opacity="0.5" d="M564.257 228.685H562.277V239.643H564.257V228.685Z" fill="white"/>
<path opacity="0.5" d="M571.079 228.685H569.1V239.643H571.079V228.685Z" fill="white"/>
<path opacity="0.5" d="M577.901 228.685H575.922V239.643H577.901V228.685Z" fill="white"/>
<path opacity="0.5" d="M584.724 228.685H582.744V239.643H584.724V228.685Z" fill="white"/>
<path opacity="0.5" d="M536.969 243.94H534.989V254.897H536.969V243.94Z" fill="white"/>
<path opacity="0.5" d="M543.791 243.94H541.812V254.897H543.791V243.94Z" fill="white"/>
<path opacity="0.5" d="M550.613 243.94H548.634V254.897H550.613V243.94Z" fill="white"/>
<path opacity="0.5" d="M557.435 243.94H555.456V254.897H557.435V243.94Z" fill="white"/>
<path opacity="0.5" d="M564.257 243.94H562.277V254.897H564.257V243.94Z" fill="white"/>
<path opacity="0.5" d="M571.079 243.94H569.1V254.897H571.079V243.94Z" fill="white"/>
<path opacity="0.5" d="M577.901 243.94H575.922V254.897H577.901V243.94Z" fill="white"/>
<path opacity="0.5" d="M584.724 243.94H582.744V254.897H584.724V243.94Z" fill="white"/>
<path opacity="0.5" d="M543.791 260.041H541.812V270.998H543.791V260.041Z" fill="white"/>
<path opacity="0.5" d="M550.613 260.041H548.634V270.998H550.613V260.041Z" fill="white"/>
<path opacity="0.5" d="M557.435 260.041H555.456V270.998H557.435V260.041Z" fill="white"/>
<path opacity="0.5" d="M564.257 260.041H562.277V270.998H564.257V260.041Z" fill="white"/>
<path opacity="0.5" d="M571.079 260.041H569.1V270.998H571.079V260.041Z" fill="white"/>
<path opacity="0.5" d="M577.901 260.041H575.922V270.998H577.901V260.041Z" fill="white"/>
<path opacity="0.5" d="M584.724 260.041H582.744V270.998H584.724V260.041Z" fill="white"/>
<path opacity="0.33" d="M651.089 225.372H646.412V237.234H651.089V225.372Z" fill="white"/>
<path opacity="0.33" d="M651.089 248.061H646.412V259.923H651.089V248.061Z" fill="white"/>
<path opacity="0.33" d="M651.089 270.749H646.412V282.611H651.089V270.749Z" fill="white"/>
<path opacity="0.33" d="M651.089 293.439H646.412V305.301H651.089V293.439Z" fill="white"/>
<path opacity="0.33" d="M651.089 314.83H646.412V326.692H651.089V314.83Z" fill="white"/>
<path opacity="0.33" d="M651.089 337.518H646.412V349.38H651.089V337.518Z" fill="white"/>
<path opacity="0.33" d="M671.141 225.372H666.464V237.234H671.141V225.372Z" fill="white"/>
<path opacity="0.33" d="M671.141 248.061H666.464V259.923H671.141V248.061Z" fill="white"/>
<path opacity="0.33" d="M671.141 270.749H666.464V282.611H671.141V270.749Z" fill="white"/>
<path opacity="0.33" d="M671.141 293.439H666.464V305.301H671.141V293.439Z" fill="white"/>
<path opacity="0.33" d="M671.141 314.83H666.464V326.692H671.141V314.83Z" fill="white"/>
<path opacity="0.33" d="M671.141 337.518H666.464V349.38H671.141V337.518Z" fill="white"/>
<path opacity="0.33" d="M691.193 225.372H686.516V237.234H691.193V225.372Z" fill="white"/>
<path opacity="0.33" d="M691.193 248.061H686.516V259.923H691.193V248.061Z" fill="white"/>
<path opacity="0.33" d="M691.193 270.749H686.516V282.611H691.193V270.749Z" fill="white"/>
<path opacity="0.33" d="M691.193 293.439H686.516V305.301H691.193V293.439Z" fill="white"/>
<path opacity="0.33" d="M691.193 314.83H686.516V326.692H691.193V314.83Z" fill="white"/>
<path opacity="0.33" d="M691.193 337.518H686.516V349.38H691.193V337.518Z" fill="white"/>
<path opacity="0.33" d="M711.244 225.372H706.567V237.234H711.244V225.372Z" fill="white"/>
<path opacity="0.33" d="M711.244 248.061H706.567V259.923H711.244V248.061Z" fill="white"/>
<path opacity="0.33" d="M711.244 270.749H706.567V282.611H711.244V270.749Z" fill="white"/>
<path opacity="0.33" d="M711.244 293.439H706.567V305.301H711.244V293.439Z" fill="white"/>
<path opacity="0.33" d="M711.244 314.83H706.567V326.692H711.244V314.83Z" fill="white"/>
<path opacity="0.33" d="M711.244 337.518H706.567V349.38H711.244V337.518Z" fill="white"/>
<path opacity="0.5" d="M574.971 59.9534H571.08V70.3346H574.971V59.9534Z" fill="white"/>
<path opacity="0.5" d="M584.574 59.9534H580.683V70.3346H584.574V59.9534Z" fill="white"/>
<path opacity="0.5" d="M594.173 59.9534H590.282V70.3346H594.173V59.9534Z" fill="white"/>
<path opacity="0.5" d="M603.775 59.9534H599.884V70.3346H603.775V59.9534Z" fill="white"/>
<path opacity="0.5" d="M574.971 77.2426H571.08V87.6238H574.971V77.2426Z" fill="white"/>
<path opacity="0.5" d="M584.574 77.2426H580.683V87.6238H584.574V77.2426Z" fill="white"/>
<path opacity="0.5" d="M594.173 77.2426H590.282V87.6238H594.173V77.2426Z" fill="white"/>
<path opacity="0.5" d="M603.775 77.2426H599.884V87.6238H603.775V77.2426Z" fill="white"/>
<path opacity="0.5" d="M574.971 94.5318H571.08V104.913H574.971V94.5318Z" fill="white"/>
<path opacity="0.5" d="M584.574 94.5318H580.683V104.913H584.574V94.5318Z" fill="white"/>
<path opacity="0.5" d="M614.667 59.9534H610.776V70.3346H614.667V59.9534Z" fill="white"/>
<path opacity="0.4" d="M314.414 165.123H311.94V174.639H314.414V165.123Z" fill="white"/>
<path opacity="0.4" d="M323.147 165.123H320.673V174.639H323.147V165.123Z" fill="white"/>
<path opacity="0.4" d="M333.361 165.123H330.887V174.639H333.361V165.123Z" fill="white"/>
<path opacity="0.4" d="M342.092 165.123H339.618V174.639H342.092V165.123Z" fill="white"/>
<path opacity="0.4" d="M295.015 165.123H292.541V174.639H295.015V165.123Z" fill="white"/>
<path opacity="0.4" d="M303.746 165.123H301.272V174.639H303.746V165.123Z" fill="white"/>
<path opacity="0.4" d="M314.414 181.648H311.94V191.164H314.414V181.648Z" fill="white"/>
<path opacity="0.4" d="M323.147 181.648H320.673V191.164H323.147V181.648Z" fill="white"/>
<path opacity="0.4" d="M333.361 181.648H330.887V191.164H333.361V181.648Z" fill="white"/>
<path opacity="0.4" d="M342.092 181.648H339.618V191.164H342.092V181.648Z" fill="white"/>
<path opacity="0.4" d="M295.015 181.648H292.541V191.164H295.015V181.648Z" fill="white"/>
<path opacity="0.4" d="M303.746 181.648H301.272V191.164H303.746V181.648Z" fill="white"/>
<path opacity="0.4" d="M314.414 198.171H311.94V207.687H314.414V198.171Z" fill="white"/>
<path opacity="0.4" d="M323.147 198.171H320.673V207.687H323.147V198.171Z" fill="white"/>
<path opacity="0.4" d="M333.361 198.171H330.887V207.687H333.361V198.171Z" fill="white"/>
<path opacity="0.4" d="M342.092 198.171H339.618V207.687H342.092V198.171Z" fill="white"/>
<path opacity="0.4" d="M295.015 198.171H292.541V207.687H295.015V198.171Z" fill="white"/>
<path opacity="0.4" d="M303.746 198.171H301.272V207.687H303.746V198.171Z" fill="white"/>
<path opacity="0.5" d="M777.585 238.053H773.752V252.811H777.585V238.053Z" fill="white"/>
<path opacity="0.5" d="M789.317 238.053H785.483V252.811H789.317V238.053Z" fill="white"/>
<path opacity="0.5" d="M800.36 238.053H796.526V252.811H800.36V238.053Z" fill="white"/>
<path opacity="0.33" d="M1040.86 241.12H1037.95V249.419H1040.86V241.12Z" fill="white"/>
<path opacity="0.33" d="M1049.98 241.12H1047.07V249.419H1049.98V241.12Z" fill="white"/>
<path opacity="0.33" d="M1040.86 241.12H1037.95V249.419H1040.86V241.12Z" fill="white"/>
<path opacity="0.33" d="M1049.98 241.12H1047.07V249.419H1049.98V241.12Z" fill="white"/>
<path opacity="0.33" d="M1058.6 241.12H1055.69V249.419H1058.6V241.12Z" fill="white"/>
<path opacity="0.33" d="M1067.72 241.12H1064.81V249.419H1067.72V241.12Z" fill="white"/>
<path opacity="0.33" d="M1040.86 256.003H1037.95V264.302H1040.86V256.003Z" fill="white"/>
<path opacity="0.33" d="M1049.98 256.003H1047.07V264.302H1049.98V256.003Z" fill="white"/>
<path opacity="0.33" d="M1040.86 256.003H1037.95V264.302H1040.86V256.003Z" fill="white"/>
<path opacity="0.33" d="M1049.98 256.003H1047.07V264.302H1049.98V256.003Z" fill="white"/>
<path opacity="0.33" d="M1058.6 256.003H1055.69V264.302H1058.6V256.003Z" fill="white"/>
<path opacity="0.33" d="M1067.72 256.003H1064.81V264.302H1067.72V256.003Z" fill="white"/>
<path opacity="0.33" d="M1040.86 271.843H1037.95V280.143H1040.86V271.843Z" fill="white"/>
<path opacity="0.33" d="M1049.98 271.843H1047.07V280.143H1049.98V271.843Z" fill="white"/>
<path opacity="0.33" d="M1040.86 271.843H1037.95V280.143H1040.86V271.843Z" fill="white"/>
<path opacity="0.33" d="M1049.98 271.843H1047.07V280.143H1049.98V271.843Z" fill="white"/>
<path opacity="0.33" d="M1058.6 271.843H1055.69V280.143H1058.6V271.843Z" fill="white"/>
<path opacity="0.33" d="M1067.72 271.843H1064.81V280.143H1067.72V271.843Z" fill="white"/>
<path opacity="0.33" d="M1077.69 241.12H1074.78V249.419H1077.69V241.12Z" fill="white"/>
<path opacity="0.33" d="M1077.69 256.003H1074.78V264.302H1077.69V256.003Z" fill="white"/>
<path opacity="0.33" d="M1086.82 241.12H1083.91V249.419H1086.82V241.12Z" fill="white"/>
<path opacity="0.33" d="M813.778 216.491H810.649V229.43H813.778V216.491Z" fill="white"/>
<path opacity="0.33" d="M829.335 216.491H826.207V229.43H829.335V216.491Z" fill="white"/>
<path opacity="0.33" d="M844.892 216.491H841.764V229.43H844.892V216.491Z" fill="white"/>
<path opacity="0.33" d="M860.449 216.491H857.321V229.43H860.449V216.491Z" fill="white"/>
<path opacity="0.33" d="M813.778 243.122H810.649V256.062H813.778V243.122Z" fill="white"/>
<path opacity="0.33" d="M829.335 243.122H826.207V256.062H829.335V243.122Z" fill="white"/>
<path opacity="0.33" d="M844.892 243.122H841.764V256.062H844.892V243.122Z" fill="white"/>
<path opacity="0.33" d="M860.449 243.122H857.321V256.062H860.449V243.122Z" fill="white"/>
<path opacity="0.33" d="M813.778 270.416H810.649V283.355H813.778V270.416Z" fill="white"/>
<path opacity="0.33" d="M829.335 270.416H826.207V283.355H829.335V270.416Z" fill="white"/>
<path opacity="0.33" d="M844.892 270.416H841.764V283.355H844.892V270.416Z" fill="white"/>
<path opacity="0.33" d="M860.449 270.416H857.321V283.355H860.449V270.416Z" fill="white"/>
<path opacity="0.33" d="M813.778 297.71H810.649V310.65H813.778V297.71Z" fill="white"/>
<path opacity="0.33" d="M829.335 297.71H826.207V310.65H829.335V297.71Z" fill="white"/>
<path opacity="0.33" d="M844.892 297.71H841.764V310.65H844.892V297.71Z" fill="white"/>
<path opacity="0.33" d="M860.449 297.71H857.321V310.65H860.449V297.71Z" fill="white"/>
<path opacity="0.33" d="M813.778 322.502H810.649V335.441H813.778V322.502Z" fill="white"/>
<path opacity="0.33" d="M829.335 322.502H826.207V335.441H829.335V322.502Z" fill="white"/>
<path opacity="0.33" d="M844.892 322.502H841.764V335.441H844.892V322.502Z" fill="white"/>
<path opacity="0.33" d="M813.778 350.154H810.649V363.094H813.778V350.154Z" fill="white"/>
<path opacity="0.33" d="M829.335 350.154H826.207V363.094H829.335V350.154Z" fill="white"/>
<path opacity="0.33" d="M844.892 350.154H841.764V363.094H844.892V350.154Z" fill="white"/>
<path opacity="0.33" d="M860.449 322.502H857.321V335.441H860.449V322.502Z" fill="white"/>
<path opacity="0.33" d="M1167.49 284.899H1164.29V292.326H1167.49V284.899Z" fill="white"/>
<path opacity="0.33" d="M1167.49 296.889H1164.29V304.316H1167.49V296.889Z" fill="white"/>
<path opacity="0.33" d="M1175.69 284.899H1172.49V292.326H1175.69V284.899Z" fill="white"/>
</g>
<path d="M1223.71 365.9H1285.98V375.033H1223.71V365.9Z" fill="#86593E"/>
<path d="M1199.93 419.856H1207.68L1244.2 318.211H1236.45L1199.93 419.856Z" fill="#B58E67"/>
<path d="M1262.46 419.856H1254.71L1245.58 318.211H1253.33L1262.46 419.856Z" fill="#B58E67"/>
<path d="M1308.1 419.856H1300.34L1263.84 318.211H1271.59L1308.1 419.856Z" fill="#B58E67"/>
<path d="M1233.92 246.311H1298.29C1299.65 246.311 1300.77 247.422 1300.77 248.789V315.178C1300.77 317.356 1299 319.122 1296.82 319.122H1227.9V252.333C1227.9 249 1230.59 246.311 1233.92 246.311Z" fill="#FFB84F"/>
<path d="M1207.96 328.822H1269.05V319.122H1207.96C1205.28 319.122 1203.11 321.289 1203.11 323.967C1203.1 326.656 1205.28 328.822 1207.96 328.822Z" fill="#FFB84F"/>
<path d="M1295.53 308.711V250.422C1295.53 248.156 1297.36 246.322 1299.63 246.322C1301.9 246.322 1303.73 248.156 1303.73 250.422V309.478C1303.73 320.167 1295.06 328.822 1284.37 328.822H1270.15C1267.47 328.822 1265.3 326.656 1265.3 323.978C1265.3 321.3 1267.47 319.133 1270.15 319.133H1285.1C1290.86 319.122 1295.53 314.467 1295.53 308.711Z" fill="#FFD788"/>
<path d="M1229.63 318.211H1262.37C1277.68 318.211 1288.57 303.311 1283.91 288.733L1278.5 271.833L1230.49 266.033L1229.63 318.211Z" fill="#B7C9B9"/>
<path d="M1224.75 203.011L1210.95 252.133H1224.75L1239.26 227.578L1224.75 203.011Z" fill="#E3E1DA"/>
<path d="M1211.58 249.878L1176.19 256.722L1177.14 259.667C1177.14 259.667 1208.56 267.144 1224.75 252.133L1211.58 249.878Z" fill="#FFA695"/>
<path d="M1176.19 256.722L1160.96 255.344L1165.18 259.144C1168.53 262.156 1173.54 262.378 1177.14 259.678L1176.19 256.722Z" fill="#FFA695"/>
<path d="M1160.95 255.333L1158.19 261.544C1158.19 261.544 1162.2 262.456 1162.13 256.389L1160.95 255.333Z" fill="#5F281C"/>
<path d="M1164.32 256.144L1161.82 262.711C1161.82 262.711 1166.46 263.222 1164.32 256.144Z" fill="#5F281C"/>
<path d="M1160.95 255.333L1155.78 259.422C1155.78 259.422 1159.27 261.267 1161.32 256.133L1160.95 255.333Z" fill="#5F281C"/>
<path d="M1168.31 259.756H1232.61V264.322H1168.31V259.756Z" fill="white"/>
<path d="M1224.75 203.011L1240.02 196.856H1258.04L1281.09 203.7L1270.73 247.456L1280.18 271.067H1235.55L1238.97 246.356L1238.83 245.922C1238 243.433 1236.17 241.456 1233.82 240.267C1229.83 238.256 1227.52 235.556 1227.2 232.678C1227.05 231.4 1227.16 229.933 1227.45 228.378C1228.75 221.367 1228.4 214.144 1226.17 207.356L1224.75 203.011Z" fill="white"/>
<path d="M1233.02 241.611C1230.53 240.356 1228.32 237.633 1227.63 234.378C1227.63 234.378 1233.1 239.289 1252.08 237.522C1273.98 235.489 1260.32 251.656 1268.14 271.067H1235.55L1238.97 246.356L1238.83 245.922C1238 243.433 1235.36 242.789 1233.02 241.611Z" fill="#E3E1DA"/>
<path d="M1242.8 208.911L1258.05 196.856L1249.97 180.511H1236.26L1242.8 208.911Z" fill="#FFA695"/>
<path d="M1239.59 195L1247.06 185.7L1236.26 180.511L1239.59 195Z" fill="#DE7963"/>
<path d="M1250.74 146.944C1250.74 146.944 1247.16 144 1242.67 144C1238.76 144 1228.72 148.122 1224.98 157.556C1221.25 166.978 1219.83 174.956 1223.57 185.644L1240.06 180.511L1250.74 146.944Z" fill="#422E2D"/>
<path d="M1225.28 170.678C1224.53 179.178 1227.33 189.589 1235.84 190.333C1244.34 191.078 1257.03 180.978 1257.78 172.489C1258.52 164 1259.27 149.878 1247.73 148.856C1230.98 147.378 1226.04 162.189 1225.28 170.678Z" fill="#FFA695"/>
<path d="M1232 163.844C1232 163.844 1229.63 162.611 1227.72 164.267" stroke="#422E2D" stroke-miterlimit="10"/>
<path d="M1258.85 171.156C1258.85 171.156 1238.85 170.933 1234.43 153.478C1234.43 153.478 1231.39 154 1227.2 158.711C1227.2 158.711 1229.21 148.4 1245.88 148.4C1262.88 148.4 1258.85 171.156 1258.85 171.156Z" fill="#422E2D"/>
<path d="M1234.75 152.167C1234.75 152.167 1231.45 165.756 1252.79 170.289" stroke="#422E2D" stroke-miterlimit="10"/>
<path d="M1250.74 168C1250.74 168 1254.03 178.389 1249.07 188.256C1249.07 188.256 1265.33 190.378 1276.05 178.389C1276.31 167.567 1270.9 157.056 1264.09 150.067C1258.4 144.222 1242.23 142.311 1238.13 153.478C1238.13 153.478 1249.27 153.156 1250.74 168Z" fill="#422E2D"/>
<path d="M1221.98 186.367C1221.98 186.367 1214.4 165.167 1230.95 150.956" stroke="#422E2D" stroke-miterlimit="10"/>
<path d="M1277.71 176.822C1277.71 176.822 1276.06 144.011 1247.87 146.422" stroke="#422E2D" stroke-miterlimit="10"/>
<path d="M1230.63 178.389C1230.63 178.389 1234.59 178.778 1240.46 178.389C1240.46 178.389 1237.47 182.056 1233.04 181.678C1232.03 181.589 1230.63 178.389 1230.63 178.389Z" fill="white"/>
<path d="M1240.46 172.5C1239.8 172.5 1239.26 171.53 1239.26 170.333C1239.26 169.137 1239.8 168.167 1240.46 168.167C1241.12 168.167 1241.66 169.137 1241.66 170.333C1241.66 171.53 1241.12 172.5 1240.46 172.5Z" fill="#422E2D"/>
<path d="M1229.76 171.167C1229.1 171.167 1228.56 170.197 1228.56 169C1228.56 167.803 1229.1 166.833 1229.76 166.833C1230.43 166.833 1230.96 167.803 1230.96 169C1230.96 170.197 1230.43 171.167 1229.76 171.167Z" fill="#422E2D"/>
<path d="M1233.55 170.333C1233.55 170.333 1232.63 173.956 1228.36 173.678C1228.36 173.678 1233.77 180.589 1233.55 170.333Z" fill="#F4BCC3"/>
<path d="M1253.05 180.834C1250.49 179.868 1249.43 176.419 1250.67 173.13C1251.92 169.841 1255 167.958 1257.55 168.923C1260.11 169.889 1261.17 173.339 1259.93 176.628C1258.69 179.917 1255.6 181.8 1253.05 180.834Z" fill="#B14330"/>
<path d="M1255.82 157.389H1258.23V170.289H1255.82V157.389Z" fill="#709480"/>
<path d="M1257.43 157.389H1259.84V170.289H1257.43V157.389Z" fill="#B4C6B6"/>
<path d="M1254.45 160.3V154.056C1254.45 151.389 1252.87 148.733 1250.58 147.356C1249.38 146.633 1246 144.522 1246 144.522C1246 144.522 1251.87 144.522 1254.48 145.533L1255.17 145.8C1257.93 146.856 1259.75 149.511 1259.75 152.467V160.311H1254.45V160.3Z" fill="#709480"/>
<path d="M1256.05 160.3V154.056C1256.05 151.389 1254.56 148.944 1252.18 147.711L1245.99 144.522L1247.88 144.367C1250.67 144.133 1253.47 144.533 1256.09 145.533L1256.78 145.8C1259.53 146.856 1261.36 149.511 1261.36 152.467V160.311H1256.05V160.3Z" fill="#B4C6B6"/>
<path d="M1257.56 180.089C1253.79 180.089 1250.74 177.034 1250.74 173.267C1250.74 169.499 1253.79 166.444 1257.56 166.444C1261.33 166.444 1264.39 169.499 1264.39 173.267C1264.39 177.034 1261.33 180.089 1257.56 180.089Z" fill="#B4C6B6"/>
<path d="M1258.91 180.089C1255.14 180.089 1252.08 177.034 1252.08 173.267C1252.08 169.499 1255.14 166.444 1258.91 166.444C1262.68 166.444 1265.74 169.499 1265.74 173.267C1265.74 177.034 1262.68 180.089 1258.91 180.089Z" fill="#F1EADF"/>
<path d="M1258.91 177.544C1256.54 177.544 1254.63 175.629 1254.63 173.267C1254.63 170.904 1256.54 168.989 1258.91 168.989C1261.27 168.989 1263.19 170.904 1263.19 173.267C1263.19 175.629 1261.27 177.544 1258.91 177.544Z" fill="#B4C6B6"/>
<path d="M1258.91 175.211C1257.83 175.211 1256.96 174.341 1256.96 173.267C1256.96 172.193 1257.83 171.322 1258.91 171.322C1259.98 171.322 1260.86 172.193 1260.86 173.267C1260.86 174.341 1259.98 175.211 1258.91 175.211Z" fill="#F1EADF"/>
<path d="M1234.62 186.922L1250.87 185.056L1259.35 173.6L1258.45 172.933L1250.27 184.011L1234.49 185.822L1234.62 186.922Z" fill="#F1EADF"/>
<path d="M1234.27 187.489H1238.26C1238.66 187.489 1238.97 187.167 1238.97 186.778V185.211C1238.97 184.811 1238.65 184.5 1238.26 184.5H1234.27C1233.87 184.5 1233.56 184.822 1233.56 185.211V186.778C1233.55 187.167 1233.87 187.489 1234.27 187.489Z" fill="#B4C6B6"/>
<path d="M1269.57 230.056L1272.69 239.211L1274.53 232.878L1269.57 230.056Z" fill="#EFEBDF"/>
<path d="M1281.09 203.7L1300.77 252.722H1284.52L1269.57 230.056L1281.09 203.7Z" fill="white"/>
<path d="M1194.46 264.322H1208.55C1208.55 260.433 1205.39 257.278 1201.5 257.278C1197.62 257.278 1194.46 260.433 1194.46 264.322Z" fill="#B7C9B9"/>
<path d="M1282.19 249.2L1213.8 256.722L1214.75 259.667C1214.75 259.667 1268.13 277.889 1300.75 252.722L1282.19 249.2Z" fill="#FFA695"/>
<path d="M1213.8 256.722L1198.57 255.344L1202.79 259.144C1206.13 262.156 1211.15 262.378 1214.75 259.678L1213.8 256.722Z" fill="#FFA695"/>
<path d="M1198.57 255.333L1195.8 261.544C1195.8 261.544 1199.82 262.456 1199.75 256.389L1198.57 255.333Z" fill="#FFA695"/>
<path d="M1201.94 256.144L1199.44 262.711C1199.43 262.711 1204.07 263.222 1201.94 256.144Z" fill="#FFA695"/>
<path d="M1198.57 255.333L1193.4 259.422C1193.4 259.422 1196.89 261.267 1198.94 256.133L1198.57 255.333Z" fill="#FFA695"/>
<path d="M1135.21 244.389H1197.86C1201.79 244.389 1204.9 241.1 1204.68 237.178L1202.23 196.522C1202.03 192.911 1199.04 190.078 1195.41 190.078H1132.76C1128.84 190.078 1125.73 193.367 1125.95 197.289L1128.39 237.944C1128.59 241.567 1131.59 244.389 1135.21 244.389Z" fill="#70927F"/>
<path d="M1131.28 244.389H1193.93C1197.86 244.389 1200.97 241.1 1200.75 237.178L1198.31 196.522C1198.1 192.911 1195.11 190.078 1191.49 190.078H1128.84C1124.91 190.078 1121.8 193.367 1122.02 197.289L1124.47 237.944C1124.67 241.567 1127.66 244.389 1131.28 244.389Z" fill="#A5BBAA"/>
<path d="M1153.04 229.022H1172.59L1164.38 259.011C1164.11 260 1164.85 260.967 1165.87 260.967H1184.94V264.389H1162.93H1149.88C1146.61 264.389 1144.23 261.278 1145.09 258.122L1153.04 229.022ZM1154.54 253.622C1156.98 253.622 1158.96 251.644 1158.96 249.2C1158.96 246.756 1156.98 244.778 1154.54 244.778C1152.09 244.778 1150.11 246.756 1150.11 249.2C1150.11 251.644 1152.1 253.622 1154.54 253.622Z" fill="#70927F"/>
<path d="M1156.56 217.267H1167.76C1170.43 217.267 1172.6 219.433 1172.6 222.1V229.033H1151.74V222.1C1151.72 219.422 1153.89 217.267 1156.56 217.267Z" fill="#70927F"/>
<path d="M1153.35 217.267H1164.55C1167.21 217.267 1169.38 219.433 1169.38 222.1V229.033H1148.52V222.1C1148.51 219.422 1150.68 217.267 1153.35 217.267Z" fill="#E3E3E3"/>
<path d="M1140.59 257.856L1148.45 229.022H1169.38L1168.2 233.344H1168.22L1160.83 260.422C1160.31 262.356 1161.69 264.244 1163.66 264.389H1162.96H1159.74H1149.98H1145.6C1142.17 264.389 1139.69 261.144 1140.59 257.856ZM1152.94 253.622C1155.38 253.622 1157.36 251.644 1157.36 249.2C1157.36 246.756 1155.38 244.778 1152.94 244.778C1150.49 244.778 1148.51 246.756 1148.51 249.2C1148.51 251.644 1150.49 253.622 1152.94 253.622Z" fill="#E3E3E3"/>
<path d="M1153.35 217.267H1164.55C1167.21 217.267 1169.38 219.433 1169.38 222.1V229.033H1148.52V222.1C1148.51 219.422 1150.68 217.267 1153.35 217.267Z" fill="#A5BBAA"/>
<path d="M1140.59 257.856L1148.45 229.022H1169.38L1168.2 233.344H1168.22L1160.83 260.422C1160.31 262.356 1161.69 264.244 1163.66 264.389H1162.96H1159.74H1149.98H1145.6C1142.17 264.389 1139.69 261.144 1140.59 257.856ZM1152.94 253.622C1155.38 253.622 1157.36 251.644 1157.36 249.2C1157.36 246.756 1155.38 244.778 1152.94 244.778C1150.49 244.778 1148.51 246.756 1148.51 249.2C1148.51 251.644 1150.49 253.622 1152.94 253.622Z" fill="#A5BBAA"/>
<path d="M1140.59 257.856L1148.45 229.022H1148.52V222.089C1148.52 219.422 1150.69 217.256 1153.36 217.256H1164.56" stroke="#F3F5F4" stroke-miterlimit="10" stroke-linecap="round" stroke-linejoin="round"/>
<path d="M1148.44 229.022L1140.58 257.856C1139.68 261.144 1142.16 264.389 1145.57 264.389" stroke="#F3F5F4" stroke-miterlimit="10" stroke-linecap="round" stroke-linejoin="round"/>
<path d="M1192.42 226.344C1192.43 226.344 1192.45 226.344 1192.46 226.344C1192.72 226.333 1192.93 226.1 1192.92 225.822L1191.58 201.789C1191.57 201.522 1191.33 201.3 1191.06 201.322C1190.79 201.333 1190.58 201.567 1190.59 201.844L1191.93 225.878C1191.94 226.144 1192.17 226.344 1192.42 226.344Z" fill="#D1CEC7"/>
<path d="M1189.22 226.344C1189.23 226.344 1189.24 226.344 1189.25 226.344C1189.52 226.333 1189.73 226.1 1189.72 225.822L1188.38 201.789C1188.36 201.522 1188.13 201.3 1187.85 201.322C1187.59 201.333 1187.37 201.567 1187.39 201.844L1188.73 225.878C1188.74 226.144 1188.95 226.344 1189.22 226.344Z" fill="#D1CEC7"/>
<path d="M1186.01 226.344C1186.02 226.344 1186.03 226.344 1186.04 226.344C1186.31 226.333 1186.52 226.1 1186.51 225.822L1185.16 201.789C1185.15 201.522 1184.93 201.3 1184.64 201.322C1184.37 201.333 1184.16 201.567 1184.17 201.844L1185.52 225.878C1185.54 226.144 1185.75 226.344 1186.01 226.344Z" fill="#D1CEC7"/>
<path d="M1182.8 226.344C1182.81 226.344 1182.83 226.344 1182.84 226.344C1183.1 226.333 1183.32 226.1 1183.3 225.822L1181.96 201.789C1181.95 201.522 1181.71 201.3 1181.44 201.322C1181.17 201.333 1180.96 201.567 1180.97 201.844L1182.31 225.878C1182.33 226.144 1182.55 226.344 1182.8 226.344Z" fill="#D1CEC7"/>
<path d="M1179.6 226.344C1179.61 226.344 1179.62 226.344 1179.64 226.344C1179.9 226.333 1180.11 226.1 1180.1 225.822L1178.76 201.789C1178.75 201.522 1178.51 201.3 1178.23 201.322C1177.97 201.333 1177.76 201.567 1177.77 201.844L1179.11 225.878C1179.12 226.144 1179.35 226.344 1179.6 226.344Z" fill="#D1CEC7"/>
<path d="M1142.41 226.344C1142.42 226.344 1142.43 226.344 1142.44 226.344C1142.71 226.333 1142.92 226.1 1142.91 225.822L1141.56 201.789C1141.55 201.522 1141.32 201.3 1141.04 201.322C1140.77 201.333 1140.56 201.567 1140.57 201.844L1141.92 225.878C1141.93 226.144 1142.15 226.344 1142.41 226.344Z" fill="#D1CEC7"/>
<path d="M1139.2 226.344C1139.21 226.344 1139.23 226.344 1139.24 226.344C1139.5 226.333 1139.71 226.1 1139.7 225.822L1138.36 201.789C1138.35 201.522 1138.11 201.3 1137.84 201.322C1137.57 201.333 1137.36 201.567 1137.37 201.844L1138.71 225.878C1138.73 226.144 1138.95 226.344 1139.2 226.344Z" fill="#D1CEC7"/>
<path d="M1136 226.344C1136.01 226.344 1136.02 226.344 1136.03 226.344C1136.3 226.333 1136.51 226.1 1136.5 225.822L1135.16 201.789C1135.14 201.522 1134.91 201.3 1134.63 201.322C1134.37 201.333 1134.15 201.567 1134.17 201.844L1135.51 225.878C1135.52 226.144 1135.73 226.344 1136 226.344Z" fill="#D1CEC7"/>
<path d="M1132.79 226.344C1132.8 226.344 1132.81 226.344 1132.82 226.344C1133.09 226.333 1133.3 226.1 1133.29 225.822L1131.94 201.789C1131.93 201.522 1131.7 201.3 1131.42 201.322C1131.15 201.333 1130.94 201.567 1130.95 201.844L1132.3 225.878C1132.31 226.144 1132.53 226.344 1132.79 226.344Z" fill="#D1CEC7"/>
<path d="M1129.58 226.344C1129.6 226.344 1129.61 226.344 1129.62 226.344C1129.88 226.333 1130.1 226.1 1130.08 225.822L1128.74 201.789C1128.73 201.522 1128.48 201.3 1128.22 201.322C1127.95 201.333 1127.74 201.567 1127.75 201.844L1129.09 225.878C1129.11 226.144 1129.33 226.344 1129.58 226.344Z" fill="#D1CEC7"/>
<path d="M1198.64 283.356H1220.53L1231.33 400.211H1227.95C1202.55 332.311 1195.26 301.767 1193.17 289.867C1192.56 286.467 1195.18 283.356 1198.64 283.356Z" fill="#B7C9B9"/>
<path d="M1230.92 395.756C1230.92 395.756 1206.67 333.3 1212.92 291.1C1213.32 288.411 1220.53 283.344 1220.53 283.344L1230.92 395.756Z" fill="#A5BBAA"/>
<path d="M1219.83 283.356H1238.42L1282.06 395.756L1279.33 400.211C1247.87 351.9 1219.14 309.022 1213.2 292.856C1211.52 288.244 1214.92 283.356 1219.83 283.356Z" fill="#B7C9B9"/>
<path d="M1245.58 302.856C1256.21 305.456 1267.39 301.767 1269.57 295.111C1272.05 287.567 1265.74 283.356 1265.74 283.356L1270.4 270.856L1278.51 271.833L1283.92 288.733C1288.58 303.311 1277.69 318.211 1262.38 318.211H1251.96L1282.07 395.756C1236.9 323.933 1245.58 302.856 1245.58 302.856Z" fill="#A5BBAA"/>
<path d="M1279.03 273.467H1230.42L1230.21 283.356H1282.2L1279.03 273.467Z" fill="#70927F"/>
<path d="M1227.94 400.211V414.133L1219.22 415.089H1230.62L1231.33 406.567L1235.35 401.289L1230.92 395.756L1227.94 400.211Z" fill="#FFA695"/>
<path d="M1219.22 415.089L1220.58 419.856H1229.59C1231.13 419.856 1232.39 418.6 1232.39 417.056V407.667L1236.99 401.689L1230.91 395.767L1230.61 415.089H1219.22Z" fill="#E8DFCF"/>
<path d="M1236.99 401.678V419.856L1233.83 403.7L1236.99 401.678Z" fill="#E8DFCF"/>
<path d="M1279.1 400.211V414.133L1270.37 415.089H1281.77L1282.48 406.567L1286.51 401.289L1282.07 395.756L1279.1 400.211Z" fill="#FFA695"/>
<path d="M1270.37 415.089L1271.73 419.856H1280.74C1282.28 419.856 1283.54 418.6 1283.54 417.056V407.667L1288.14 401.689L1282.06 395.767L1281.76 415.089H1270.37Z" fill="#E8DFCF"/>
<path d="M1288.16 401.678V419.856L1284.99 403.7L1288.16 401.678Z" fill="#E8DFCF"/>
<path d="M1290.27 419.856H1318.74C1323.24 419.856 1326.9 416.2 1326.9 411.7V273.467H1282.11V411.7C1282.11 416.2 1285.76 419.856 1290.27 419.856Z" fill="#E8DFCF"/>
<path d="M1296.66 419.856H1325.13C1329.63 419.856 1333.29 416.2 1333.29 411.7V273.467H1288.5V411.7C1288.5 416.2 1292.15 419.856 1296.66 419.856Z" fill="#A5BBAA"/>
<path d="M1116.77 419.856H1145.24C1149.74 419.856 1153.4 416.2 1153.4 411.7V273.467H1108.61V411.7C1108.61 416.2 1112.26 419.856 1116.77 419.856Z" fill="#E8DFCF"/>
<path d="M1123.16 419.856H1151.62C1156.13 419.856 1159.79 416.2 1159.79 411.7V273.467H1114.99V411.7C1114.99 416.2 1118.65 419.856 1123.16 419.856Z" fill="#A5BBAA"/>
<path d="M1346.62 278.411H1119.42C1116.56 278.411 1114.25 276.1 1114.25 273.244V269.489C1114.25 266.633 1116.56 264.322 1119.42 264.322H1346.62C1349.48 264.322 1351.79 266.633 1351.79 269.489V273.244C1351.79 276.1 1349.48 278.411 1346.62 278.411Z" fill="#A5BBAA"/>
<path d="M1243.71 278.411H1085.17C1082.31 278.411 1080 276.1 1080 273.244V269.489C1080 266.633 1082.31 264.322 1085.17 264.322H1243.71C1246.57 264.322 1248.88 266.633 1248.88 269.489V273.244C1248.89 276.1 1246.57 278.411 1243.71 278.411Z" fill="#E8DFCF"/>
<path d="M1288.49 278.411H1333.28V286.656H1288.49V278.411Z" fill="#70927F"/>
<path d="M1114.99 278.411H1159.79V286.656H1114.99V278.411Z" fill="#70927F"/>
<g clip-path="url(#clip0_95_855)">
<path d="M122.178 411.691L128.576 415.792L130.797 419.051C130.797 419.051 128.521 420.19 127.243 420.508C125.966 420.826 115.826 419.744 115.826 419.744L115.553 413.808L122.178 411.691Z" fill="#273140"/>
<path d="M90.2056 416.167L93.3681 419.713C93.3681 419.713 95.9414 424.518 94.6508 424.445C93.3603 424.372 86.3521 424.747 85.8802 423.944C85.4083 423.141 81.6853 420.341 81.2003 419.794C80.7128 419.249 81.2108 414.739 81.2108 414.739L90.2056 416.167Z" fill="#273140"/>
<path d="M108.287 321.86L100.343 370.163L90.2084 416.17L81.1797 415.654L82.9187 367.097C82.9187 367.097 76.4112 322.468 76.3877 309.267L108.287 321.86Z" fill="#2E4661"/>
<path d="M128.218 324.241L124.584 413.391L115.292 413.821L110.348 368.524L103.155 328.55L122.357 303.818L128.218 324.241Z" fill="#2E4661"/>
<path d="M123.346 277.303C118.473 253.594 124.66 242.164 113.996 235.575C113.996 235.575 96.6246 230.802 85.5571 238.746C85.4033 238.855 85.2521 238.967 85.1009 239.082L81.078 247.441L78.025 284.942C78.025 284.942 69.489 334.179 74.0203 334.575C79.1539 335.026 102.723 324.042 107.199 324.301C111.676 324.561 125.366 327.012 138.287 322.614C149.371 318.841 128.218 301.011 123.346 277.303Z" fill="#A5BBAA"/>
<path d="M101.743 234.843L98.3637 234.968L98.0195 238.37L110.435 273.088L113.217 258.044L110.177 236.193L101.743 234.843Z" fill="white"/>
<path d="M112.705 260.797C112.679 259.426 112.614 258.195 112.502 257.199C111.722 250.309 106.803 241.316 106.803 241.316C106.803 241.316 106.474 239.351 106.399 237.64L102.311 236.978L102.574 241.246L104.339 243.092C104.339 243.092 108.628 259.496 108.709 266.074C108.716 266.765 108.706 267.474 108.683 268.191L110.435 273.09L112.705 260.797Z" fill="#2E4661"/>
<path d="M111.946 286.431L107.162 324.233L117.249 325.656L124.226 325.114L115.403 292.318L111.946 286.431Z" fill="white"/>
<path d="M106.323 236.347C104.008 236.444 101.69 236.537 99.3748 236.634C99.0958 234.806 98.9602 232.958 98.9759 231.109C96.9787 230.708 94.6375 230.014 94.0248 228.069C93.8319 227.457 93.8501 226.802 93.871 226.158C93.9544 223.507 93.2088 220.816 94.1187 218.201C94.4211 217.335 94.1812 216.34 94.5619 215.503C95.2267 214.035 96.8015 213.213 98.3345 212.718C102.245 211.456 106.737 211.709 110.215 213.899C111.141 214.481 112.007 215.216 112.515 216.186C113.3 217.68 113.122 219.473 112.927 221.147C112.744 222.693 112.565 224.239 112.382 225.785C112.173 227.563 111.798 229.605 110.236 230.481C109.407 230.945 108.357 230.992 107.634 231.61C106.359 232.697 106.839 234.754 106.323 236.347Z" fill="#E7CAAD"/>
<path d="M116.277 201.885C115.759 201.838 115.227 201.773 114.677 201.588C112.943 201.001 111.65 199.643 109.817 199.109C106.109 198.032 101.622 198.613 98.2227 200.397C94.9689 202.102 90.4089 203.038 87.5489 205.202C86.3548 206.104 85.4787 207.376 84.8504 208.734C82.6656 213.438 83.4894 219.385 86.8658 223.322C87.6244 224.205 88.4926 224.988 89.3921 225.723C91.2563 227.248 93.4958 229.141 95.811 229.477C95.5842 227.48 92.8884 221.463 94.1867 219.617C95.9075 217.169 99.6723 216.908 102.386 216.934C105.622 216.963 108.177 215.709 111.392 215.596C113.029 215.539 114.901 215.711 116.061 214.556C117.404 213.221 120.131 209.107 120.712 207.353C121.221 205.817 120.644 204.028 119.44 202.949C118.405 202.016 117.367 201.987 116.277 201.885Z" fill="#3A3029"/>
<path d="M138.061 254.105L117.016 235.038L111.955 239.306L129.374 268.4L137.237 269.153C137.237 269.153 139.503 261.055 139.969 260.195L138.061 254.105Z" fill="#98B19E"/>
<path d="M39.5152 381.131C35.9594 380.011 32.5064 380.303 29.2546 381.998C26.0027 383.693 23.7841 386.356 22.6666 389.914C21.5468 393.474 21.839 396.927 23.534 400.174C25.2289 403.426 27.8916 405.643 31.4497 406.762C32.8594 407.207 34.2551 407.429 35.6274 407.429C37.7127 407.429 39.7489 406.917 41.7127 405.895C44.9646 404.2 47.1808 401.537 48.3006 397.979C49.4181 394.426 49.1259 390.975 47.431 387.716C45.729 384.467 43.0663 382.248 39.5152 381.131Z" fill="#EC764B"/>
<path d="M47.4291 387.719C45.7295 384.467 43.0667 382.251 39.5156 381.131C38.3677 380.771 37.2316 380.558 36.1094 380.49C38.3444 381.736 40.0977 383.553 41.3367 385.926C43.0317 389.182 43.3239 392.635 42.2064 396.188C41.0866 399.744 38.8704 402.407 35.6185 404.104C33.6547 405.126 31.6185 405.638 29.5332 405.638C29.276 405.638 29.0189 405.629 28.7617 405.612C29.5916 406.075 30.4893 406.463 31.4525 406.765C32.8622 407.209 34.2579 407.431 35.6302 407.431C37.7155 407.431 39.7517 406.919 41.7155 405.897C44.9674 404.202 47.1836 401.54 48.3034 397.982C49.4162 394.428 49.124 390.975 47.4291 387.719Z" fill="#CA6642"/>
<path d="M114.273 293.496C108.723 283.803 99.393 276.839 86.5445 272.795C73.6983 268.753 62.0022 269.096 51.7814 273.819C42.8954 277.924 36.3846 284.89 32.4267 294.52C31.7604 296.142 31.8049 297.984 32.5483 299.574C33.2917 301.164 34.678 302.377 36.3519 302.903L44.0035 305.311C47.0567 306.272 50.3389 304.785 51.6364 301.851C53.9392 296.647 57.2027 293.12 61.6165 291.06C66.9584 288.568 73.4037 288.481 80.7724 290.8C88.1202 293.113 93.282 296.947 96.1178 302.193C98.9395 307.422 99.22 313.727 96.9547 320.93C93.8314 330.859 88.8823 336.652 82.2453 338.15C75.2576 339.726 65.4435 338.482 53.0555 334.447L49.7451 333.405C46.4395 332.364 42.9047 334.206 41.8644 337.512L32.7914 366.353C32.2888 367.955 32.4384 369.657 33.2122 371.144C33.9884 372.633 35.2975 373.729 36.8966 374.232L44.6581 376.675C45.2846 376.871 45.9158 376.965 46.54 376.965C49.2098 376.965 51.6949 375.246 52.5365 372.567L58.4137 353.893C58.4862 353.662 58.734 353.528 58.9654 353.594C73.5486 357.757 85.6678 358.043 94.9886 354.44C104.901 350.608 112.076 341.842 116.312 328.383C120.531 314.978 119.846 303.24 114.273 293.496Z" fill="#EC764B"/>
<path d="M114.273 293.496C108.723 283.803 99.3932 276.839 86.5446 272.795C78.5914 270.291 71.0777 269.473 64.083 270.331C67.7534 270.749 71.5383 271.57 75.4307 272.795C88.2793 276.839 97.6094 283.803 103.159 293.496C108.733 303.238 109.418 314.976 105.2 328.383C100.964 341.842 93.7918 350.608 83.8772 354.44C81.0134 355.546 77.8854 356.285 74.5049 356.659C82.3553 357.411 89.212 356.675 94.9911 354.44C104.903 350.608 112.078 341.842 116.314 328.383C120.532 314.978 119.847 303.24 114.273 293.496Z" fill="#CA6642"/>
<path d="M89.2485 236.634L79.2734 239.708L55.415 280.377L57.0419 288.238L87.9501 303.693L92.2885 295.288L72.7685 280.377L84.6963 264.108L89.3058 238.081L89.2485 236.634Z" fill="#98B19E"/>
<path d="M116.603 235.385L111.54 229.946L106.659 231.302L105.304 236.183L109.642 236.996L113.717 237.818L116.603 235.385Z" fill="#D6BBA0"/>
<path d="M91.8607 296.117L96.7309 297.121L95.9488 299.988L100.167 304.924L94.3845 307.028L88.7217 302.202L91.8607 296.117Z" fill="#E7CAAD"/>
<path d="M140.264 192.408C138.694 194.236 137.748 196.611 137.756 199.21C137.777 204.946 142.443 209.579 148.179 209.558C149.96 209.55 151.631 209.097 153.094 208.304C155.02 214.434 160.759 218.869 167.522 218.842C172.953 218.822 177.7 215.93 180.334 211.61C183.7 215.716 188.815 218.329 194.538 218.308C204.63 218.272 212.78 210.059 212.741 199.969C212.736 198.65 212.59 197.367 212.319 196.129C218.521 194.246 223.026 188.474 223 181.659C222.969 173.339 216.201 166.621 207.881 166.652C206.797 166.657 205.741 166.777 204.724 166.999C204.726 166.886 204.732 166.777 204.732 166.665C204.711 160.929 200.044 156.296 194.308 156.317C191.352 156.327 188.69 157.576 186.805 159.566C183.647 154.03 177.69 150.31 170.867 150.336C161.81 150.37 154.322 156.987 152.906 165.638C151.675 165.317 150.382 165.147 149.05 165.153C140.731 165.184 134.012 171.952 134.043 180.272C134.061 185.267 136.512 189.684 140.264 192.408ZM156.744 193.198C156.723 193.219 156.702 193.243 156.681 193.263C156.676 193.256 156.671 193.25 156.666 193.243C156.694 193.227 156.72 193.214 156.744 193.198Z" fill="#D6DCDC"/>
<path d="M150.898 222.988C151.456 226.458 149.092 229.725 145.622 230.28C144.198 230.51 142.808 230.246 141.627 229.615C141.108 231.417 139.594 232.853 137.62 233.169C134.898 233.604 132.338 231.753 131.9 229.031C131.835 228.632 131.822 228.236 131.853 227.848C129.467 228.085 127.28 226.422 126.894 224.023C126.495 221.53 128.19 219.187 130.682 218.785C131.196 218.702 131.702 218.709 132.187 218.796C132.682 216.248 134.718 214.163 137.427 213.727C140.42 213.247 143.257 214.937 144.339 217.638C147.525 217.497 150.38 219.765 150.898 222.988Z" fill="#D6DCDC"/>
</g>
<defs>
<clipPath id="clip0_95_855">
<rect width="223" height="290" fill="white" transform="translate(0 130)"/>
</clipPath>
</defs>
</svg>
